<svg width="447" height="98" viewBox="0 0 447 98" fill="none" xmlns="http://www.w3.org/2000/svg">
<path d="M0.4375 8.34375H56.8438C65.8021 8.34375 73.1458 9.78125 78.875 12.6562C84.6042 15.5312 87.4688 19.2188 87.4688 23.7188C87.4688 27.8438 85.0312 31.0833 80.1562 33.4375C75.3021 35.7917 68.5833 36.9688 60 36.9688H38.1562V41.0312L53.7812 51H0.4375L16.0938 41.0312V18.1875L0.4375 8.34375ZM38.1562 28.9688H54.4062C58.0104 28.9688 60.5104 28.5208 61.9062 27.625C63.3021 26.7292 64 25.125 64 22.8125C64 18.5 60.8646 16.3438 54.5938 16.3438H38.1562V28.9688ZM252.336 8.34375H308.742C317.701 8.34375 325.044 9.78125 330.773 12.6562C336.503 15.5312 339.367 19.2188 339.367 23.7188C339.367 27.8438 336.93 31.0833 332.055 33.4375C327.201 35.7917 320.482 36.9688 311.898 36.9688H290.055V41.0312L305.68 51H252.336L267.992 41.0312V18.1875L252.336 8.34375ZM290.055 28.9688H306.305C309.909 28.9688 312.409 28.5208 313.805 27.625C315.201 26.7292 315.898 25.125 315.898 22.8125C315.898 18.5 312.763 16.3438 306.492 16.3438H290.055V28.9688Z" fill="black"/>
<path d="M140.121 36.7227V51H88.1484L97.9141 44.8281V30.5898L88.1484 24.3398H121.469L111.703 30.5898V45.7266H128.148L140.121 36.7227ZM182.621 24.3398L176.234 29.2031L187.387 44.7695L197.465 51H163.871L173.129 45.5312L171.918 43.6953H156.566L155.375 45.5312L163.422 51H138.52L146.371 44.7695L157.348 29.2031L151.098 24.3398H182.621ZM163.871 32.0742L159.164 39.3008H168.891L163.871 32.0742ZM219.105 24.3398L235.707 38.7344V30.5508L225.902 24.3398H253.227L243.441 30.5508V51H229.652L212.855 35.8438V44.7695L222.66 51H195.336L205.121 44.7695V30.5508L195.336 24.3398H219.105ZM381.473 24.3398L375.086 29.2031L386.238 44.7695L396.316 51H362.723L371.98 45.5312L370.77 43.6953H355.418L354.227 45.5312L362.273 51H337.371L345.223 44.7695L356.199 29.2031L349.949 24.3398H381.473ZM362.723 32.0742L358.016 39.3008H367.742L362.723 32.0742ZM446.16 36.7227V51H394.188L403.953 44.8281V30.5898L394.188 24.3398H427.508L417.742 30.5898V45.7266H434.188L446.16 36.7227Z" fill="#05B705"/>
<path d="M69.2578 79.4453V85.6953C67.2005 83.026 64.0951 81.6914 59.9414 81.6914C55.7812 81.6914 53.7012 83.2507 53.7012 86.3691C53.7012 87.9316 54.2611 89.0612 55.3809 89.7578C56.5072 90.4544 58.3268 90.8027 60.8398 90.8027C63.2096 90.8027 65.1823 90.4186 66.7578 89.6504C68.3398 88.8822 69.0918 87.9414 69.0137 86.8281C69.0137 86.7826 69.0039 86.7207 68.9844 86.6426C69.668 87.0267 70.0098 87.5703 70.0098 88.2734C70.0098 89.888 69.0202 91.1934 67.041 92.1895C65.0684 93.179 62.4707 93.6738 59.248 93.6738C55.5436 93.6738 52.3535 92.987 49.6777 91.6133C47.002 90.2396 45.6641 88.6022 45.6641 86.7012C45.6641 84.7676 47.0117 83.0391 49.707 81.5156C52.4023 79.9857 55.459 79.2207 58.877 79.2207C61.8327 79.2207 64.4531 79.7806 66.7383 80.9004L69.2578 79.4453ZM70.3223 83.6641L79.4336 83.4492V86.3301C80.599 84.4095 82.168 83.4492 84.1406 83.4492C85.4688 83.4492 86.5527 83.7096 87.3926 84.2305C88.2389 84.7448 88.6621 85.4089 88.6621 86.2227C88.6621 87.6875 87.6074 88.4199 85.498 88.4199C84.9447 88.4199 84.2318 88.3451 83.3594 88.1953C83.7174 87.6615 83.8965 87.222 83.8965 86.877C83.8965 86.0566 83.4375 85.6465 82.5195 85.6465C81.7122 85.6465 81.0319 85.9753 80.4785 86.6328C79.9316 87.2839 79.6582 88.0879 79.6582 89.0449V90.5586L84.1016 93H70.3027L74.1016 90.5586V86.1152L70.3223 83.6641ZM105.625 88.8398H95.0293C95.0293 90.5586 96.5885 91.418 99.707 91.418C102.663 91.418 104.606 90.8581 105.537 89.7383C105.654 90.0052 105.713 90.2233 105.713 90.3926C105.713 91.3366 105.039 92.0951 103.691 92.668C102.35 93.2344 100.57 93.5176 98.3496 93.5176C95.5762 93.5176 93.3333 93.0488 91.6211 92.1113C89.9154 91.1738 89.0625 89.9434 89.0625 88.4199C89.0625 86.9421 89.8958 85.6888 91.5625 84.6602C93.2292 83.6315 95.2604 83.1172 97.6562 83.1172C99.8242 83.1172 101.611 83.625 103.018 84.6406C104.43 85.6497 105.299 87.0495 105.625 88.8398ZM100.82 87.1699C100.82 85.6921 99.8828 84.9531 98.0078 84.9531C97.181 84.9531 96.4876 85.1647 95.9277 85.5879C95.3743 86.0111 95.0977 86.5384 95.0977 87.1699H100.82ZM124.463 89.5234C125.374 89.6471 125.83 90.1484 125.83 91.0273C125.83 92.6354 124.469 93.4395 121.748 93.4395C119.482 93.4395 118.177 92.7559 117.832 91.3887C117.129 92.1634 116.351 92.7005 115.498 93C114.652 93.293 113.464 93.4395 111.934 93.4395C108.62 93.4395 106.963 92.6517 106.963 91.0762C106.963 89.416 108.493 88.3678 111.553 87.9316L112.744 87.7656L117.441 87.1113V86.3496C117.441 85.5684 116.693 85.1777 115.195 85.1777C113.353 85.1777 112.432 85.6009 112.432 86.4473C112.432 86.6491 112.536 86.8704 112.744 87.1113C111.813 87.3587 110.706 87.4824 109.424 87.4824C108.005 87.4824 107.295 87.0527 107.295 86.1934C107.295 85.3145 108.073 84.5983 109.629 84.0449C111.185 83.4915 113.2 83.2148 115.674 83.2148C118.285 83.2148 120.156 83.4655 121.289 83.9668C122.428 84.4681 122.998 85.2949 122.998 86.4473V90.0703C122.998 91.0078 123.252 91.4766 123.76 91.4766C124.294 91.4766 124.561 91.0924 124.561 90.3242C124.561 90.1615 124.528 89.8945 124.463 89.5234ZM117.441 88.6934L115.127 89.0254L114.453 89.1035C113.197 89.2663 112.568 89.709 112.568 90.4316C112.568 91.1283 113.132 91.4766 114.258 91.4766C115.169 91.4766 115.928 91.2845 116.533 90.9004C117.139 90.5163 117.441 90.0378 117.441 89.4648V88.6934ZM133.662 79.4453V83.4395H137.559L136.191 85.373H133.662V89.416C133.662 90.5749 134.04 91.1543 134.795 91.1543C135.954 91.1543 136.533 90.5684 136.533 89.3965C136.533 89.071 136.471 88.7129 136.348 88.3223C137.539 88.5176 138.135 89.1914 138.135 90.3438C138.135 92.4206 136.462 93.459 133.115 93.459C131.735 93.459 130.553 93.1758 129.57 92.6094C128.594 92.043 128.105 91.3626 128.105 90.5684V85.373H125.098V84.5039C126.66 84.2174 128.236 83.5794 129.824 82.5898C131.413 81.6003 132.542 80.5521 133.213 79.4453H133.662ZM155.566 88.8398H144.971C144.971 90.5586 146.53 91.418 149.648 91.418C152.604 91.418 154.548 90.8581 155.479 89.7383C155.596 90.0052 155.654 90.2233 155.654 90.3926C155.654 91.3366 154.98 92.0951 153.633 92.668C152.292 93.2344 150.511 93.5176 148.291 93.5176C145.518 93.5176 143.275 93.0488 141.562 92.1113C139.857 91.1738 139.004 89.9434 139.004 88.4199C139.004 86.9421 139.837 85.6888 141.504 84.6602C143.171 83.6315 145.202 83.1172 147.598 83.1172C149.766 83.1172 151.553 83.625 152.959 84.6406C154.372 85.6497 155.241 87.0495 155.566 88.8398ZM150.762 87.1699C150.762 85.6921 149.824 84.9531 147.949 84.9531C147.122 84.9531 146.429 85.1647 145.869 85.5879C145.316 86.0111 145.039 86.5384 145.039 87.1699H150.762ZM184.404 83.4395L180.791 85.8711L176.045 94.2793C175.394 95.4316 174.587 96.2454 173.623 96.7207C172.66 97.2025 171.344 97.4434 169.678 97.4434C168.193 97.4434 166.956 97.2188 165.967 96.7695C164.984 96.3203 164.492 95.7539 164.492 95.0703C164.492 94.556 164.86 94.0938 165.596 93.6836C166.338 93.2799 167.174 93.0781 168.105 93.0781C168.483 93.0781 169.017 93.127 169.707 93.2246C169.518 93.7389 169.424 94.1361 169.424 94.416C169.424 95.1257 169.766 95.4805 170.449 95.4805C171.074 95.4805 171.523 95.207 171.797 94.6602L172.354 93.5664L165.146 85.8809L160.703 83.4395H174.033L171.592 85.5488L174.863 89.3086L177.051 85.666L174.385 83.4395H184.404ZM193.184 83.1465C195.56 83.1465 197.66 83.6934 199.482 84.7871C201.305 85.8743 202.217 87.1309 202.217 88.5566C202.217 89.9173 201.312 91.0827 199.502 92.0527C197.692 93.0228 195.514 93.5078 192.969 93.5078C190.41 93.5078 188.223 93.0033 186.406 91.9941C184.59 90.9785 183.682 89.7546 183.682 88.3223C183.682 86.8965 184.609 85.679 186.465 84.6699C188.327 83.6543 190.566 83.1465 193.184 83.1465ZM192.891 85.1094C190.781 85.1094 189.727 86.2096 189.727 88.4102C189.727 90.5 190.807 91.5449 192.969 91.5449C195.065 91.5449 196.113 90.5033 196.113 88.4199C196.113 86.2129 195.039 85.1094 192.891 85.1094ZM221.895 83.4395V90.5586L225.674 93H216.338V90.998C215.114 92.6257 213.291 93.4395 210.869 93.4395C209.417 93.4395 208.174 93.1465 207.139 92.5605C206.104 91.9746 205.586 91.2682 205.586 90.4414V86.1152L201.807 83.6641L211.143 83.4395V88.7812C211.143 89.5885 211.302 90.1549 211.621 90.4805C211.947 90.806 212.507 90.9688 213.301 90.9688C214.193 90.9688 214.922 90.7116 215.488 90.1973C216.055 89.6829 216.338 89.0189 216.338 88.2051V86.1152L211.855 83.6641L221.895 83.4395ZM224.717 83.6641L233.828 83.4492V86.3301C234.993 84.4095 236.562 83.4492 238.535 83.4492C239.863 83.4492 240.947 83.7096 241.787 84.2305C242.633 84.7448 243.057 85.4089 243.057 86.2227C243.057 87.6875 242.002 88.4199 239.893 88.4199C239.339 88.4199 238.626 88.3451 237.754 88.1953C238.112 87.6615 238.291 87.222 238.291 86.877C238.291 86.0566 237.832 85.6465 236.914 85.6465C236.107 85.6465 235.426 85.9753 234.873 86.6328C234.326 87.2839 234.053 88.0879 234.053 89.0449V90.5586L238.496 93H224.697L228.496 90.5586V86.1152L224.717 83.6641ZM258.965 83.1465C261.341 83.1465 263.441 83.6934 265.264 84.7871C267.087 85.8743 267.998 87.1309 267.998 88.5566C267.998 89.9173 267.093 91.0827 265.283 92.0527C263.473 93.0228 261.296 93.5078 258.75 93.5078C256.191 93.5078 254.004 93.0033 252.188 91.9941C250.371 90.9785 249.463 89.7546 249.463 88.3223C249.463 86.8965 250.391 85.679 252.246 84.6699C254.108 83.6543 256.348 83.1465 258.965 83.1465ZM258.672 85.1094C256.562 85.1094 255.508 86.2096 255.508 88.4102C255.508 90.5 256.589 91.5449 258.75 91.5449C260.846 91.5449 261.895 90.5033 261.895 88.4199C261.895 86.2129 260.82 85.1094 258.672 85.1094ZM300.889 83.4395L297.334 85.666L293.779 91.4473L295.781 93H284.648L286.65 91.4473L284.082 87.7754L281.846 91.4473L283.848 93H272.109L274.561 90.998L270.996 85.8809L267.217 83.4395H278.926L276.709 85.666L279.434 89.4453L281.621 85.4414L279.18 83.4395H291.123L288.584 85.666L291.465 89.6602L293.74 85.666L291.406 83.4395H300.889ZM299.434 83.6641L308.545 83.4395V86.0078C309.261 84.9401 310.003 84.2109 310.771 83.8203C311.546 83.4232 312.604 83.2246 313.945 83.2246C317.52 83.2246 319.307 84.3997 319.307 86.75V90.5586L323.086 93H311.416L313.76 90.998V87.7852C313.76 86.4766 313.037 85.8223 311.592 85.8223C310.752 85.8223 310.072 86.0827 309.551 86.6035C309.03 87.1243 308.77 87.8047 308.77 88.6445V90.998L311.104 93H299.434L303.213 90.5586V86.1152L299.434 83.6641ZM336.279 79.4453V83.4395H340.176L338.809 85.373H336.279V89.416C336.279 90.5749 336.657 91.1543 337.412 91.1543C338.571 91.1543 339.15 90.5684 339.15 89.3965C339.15 89.071 339.089 88.7129 338.965 88.3223C340.156 88.5176 340.752 89.1914 340.752 90.3438C340.752 92.4206 339.079 93.459 335.732 93.459C334.352 93.459 333.171 93.1758 332.188 92.6094C331.211 92.043 330.723 91.3626 330.723 90.5684V85.373H327.715V84.5039C329.277 84.2174 330.853 83.5794 332.441 82.5898C334.03 81.6003 335.16 80.5521 335.83 79.4453H336.279ZM359.326 89.5234C360.238 89.6471 360.693 90.1484 360.693 91.0273C360.693 92.6354 359.333 93.4395 356.611 93.4395C354.346 93.4395 353.04 92.7559 352.695 91.3887C351.992 92.1634 351.214 92.7005 350.361 93C349.515 93.293 348.327 93.4395 346.797 93.4395C343.483 93.4395 341.826 92.6517 341.826 91.0762C341.826 89.416 343.356 88.3678 346.416 87.9316L347.607 87.7656L352.305 87.1113V86.3496C352.305 85.5684 351.556 85.1777 350.059 85.1777C348.216 85.1777 347.295 85.6009 347.295 86.4473C347.295 86.6491 347.399 86.8704 347.607 87.1113C346.676 87.3587 345.57 87.4824 344.287 87.4824C342.868 87.4824 342.158 87.0527 342.158 86.1934C342.158 85.3145 342.936 84.5983 344.492 84.0449C346.048 83.4915 348.063 83.2148 350.537 83.2148C353.148 83.2148 355.02 83.4655 356.152 83.9668C357.292 84.4681 357.861 85.2949 357.861 86.4473V90.0703C357.861 91.0078 358.115 91.4766 358.623 91.4766C359.157 91.4766 359.424 91.0924 359.424 90.3242C359.424 90.1615 359.391 89.8945 359.326 89.5234ZM352.305 88.6934L349.99 89.0254L349.316 89.1035C348.06 89.2663 347.432 89.709 347.432 90.4316C347.432 91.1283 347.995 91.4766 349.121 91.4766C350.033 91.4766 350.791 91.2845 351.396 90.9004C352.002 90.5163 352.305 90.0378 352.305 89.4648V88.6934ZM376.436 83.4395V86.9941C373.74 85.6921 370.999 85.041 368.213 85.041C366.462 85.041 365.586 85.2624 365.586 85.7051C365.586 86.0632 365.947 86.2422 366.67 86.2422L369.443 86.3496C371.924 86.3496 373.91 86.6979 375.4 87.3945C376.898 88.0846 377.646 89.0059 377.646 90.1582C377.646 92.3457 375.661 93.4395 371.689 93.4395C369.521 93.4395 367.174 93.0814 364.648 92.3652L361.953 93.4883V89.0547C363.21 89.8294 364.736 90.4805 366.533 91.0078C368.33 91.5352 369.941 91.7988 371.367 91.7988L372.197 91.8086L373.73 91.457C373.809 91.4049 373.848 91.3366 373.848 91.252C373.848 90.7832 373.262 90.5488 372.09 90.5488C365.065 90.5488 361.553 89.25 361.553 86.6523C361.553 84.3542 363.659 83.2051 367.871 83.2051C369.863 83.2051 371.803 83.5339 373.691 84.1914L376.436 83.4395ZM387.197 78.9961V88.1758L391.328 85.7637L388.105 83.4395H401.582L394.971 87.1016L398.936 90.5488L402.715 93H390.088L392.461 90.998L390.42 89.0547L387.197 90.7734L389.775 93H377.861L381.641 90.5488V81.6621L377.861 79.2207L387.197 78.9961ZM406.211 89.416C406.973 89.416 407.65 89.6081 408.242 89.9922C408.841 90.3763 409.141 90.8125 409.141 91.3008C409.141 91.7956 408.841 92.235 408.242 92.6191C407.65 93.0033 406.973 93.1953 406.211 93.1953C405.443 93.1953 404.762 93.0065 404.17 92.6289C403.577 92.2448 403.281 91.8021 403.281 91.3008C403.281 90.806 403.577 90.3698 404.17 89.9922C404.762 89.6081 405.443 89.416 406.211 89.416Z" fill="black"/>
</svg>
